# xmcd
#
# Track frame offsets: 
#        150
#        19751
#        41188
#        59273
#        80430
#        99832
#        115815
#        127259
#        148383
#        168922
#        184906
#        205130
#        216834
#        236996
#
# Disc length: 3393 seconds
#
# Revision: 4
# Processed by: cddbd v1.5.2PL0 Copyright (c) Steve Scherf et al.
# Submitted via: ExactAudioCopy v0.99pb5
#
DISCID=d10d3f0e
DTITLE=Ismael Serrano - Naves ardiendo más allá de Orión
DYEAR=2005
DGENRE=Latin
TTITLE0=Elegía
TTITLE1=El virus del miedo
TTITLE2=Sucede que a veces
TTITLE3=Duermes
TTITLE4=Reina del súper
TTITLE5=Volveré temprano
TTITLE6=Alicia
TTITLE7=Fragilidad
TTITLE8=Allí
TTITLE9=El vals del jubilado
TTITLE10=Jóvenes y hermosos
TTITLE11=Estamos a salvo
TTITLE12=Dulce memoria
TTITLE13=Ya nada es lo que era
EXTD=YEAR: 2005
EXTT0=
EXTT1=
EXTT2=
EXTT3=
EXTT4=
EXTT5=
EXTT6=
EXTT7=
EXTT8=
EXTT9=
EXTT10=
EXTT11=
EXTT12=
EXTT13=
PLAYORDER=
